<svg xmlns="http://www.w3.org/2000/svg" xmlns:xlink="http://www.w3.org/1999/xlink" id="Capa_1" x="0px" y="0px" viewBox="0 0 100 63.5" style="enable-background:new 0 0 100 63.5;" xml:space="preserve"><style type="text/css">	.st0{fill:#FFFFFF;}</style><g>	<path class="st0" d="M0,33.4c0,0.2,0,0.4,0,0.5c0,0.2,0,0.4,0.1,0.6c0,0,0,0,0,0.1c0,0.3,0.1,0.6,0.1,0.9c0,0.3,0.1,0.6,0.2,0.9  h40.6c-0.2-0.3-0.5-0.6-0.7-0.9h27c-0.3-0.3-0.5-0.6-0.8-0.9h33.3c0-0.4,0.1-0.8,0.1-1.1H0z"></path>	<path class="st0" d="M1.4,39.5c0.1,0.2,0.1,0.4,0.2,0.6c0,0,0,0,0,0.1c0.1,0.3,0.3,0.6,0.4,0.9c0.1,0.3,0.3,0.6,0.5,0.9h41.4  c-0.1-0.3-0.2-0.6-0.3-0.9h27c-0.1-0.3-0.2-0.6-0.4-0.9h28.1c0.2-0.4,0.3-0.8,0.5-1.1H1.2C1.3,39.2,1.3,39.3,1.4,39.5z"></path>	<path class="st0" d="M4.5,45.1c0.1,0.2,0.3,0.4,0.4,0.6c0,0,0,0,0,0.1c0.2,0.3,0.5,0.6,0.7,0.9c0.3,0.3,0.5,0.6,0.8,0.9h38.5  c0-0.3,0-0.6-0.1-0.9h27c0-0.3-0.1-0.6-0.1-0.9h23.3c0.3-0.4,0.6-0.8,0.8-1.1H4.1C4.2,44.8,4.3,44.9,4.5,45.1z"></path>	<path class="st0" d="M9.7,50.7c0.2,0.2,0.4,0.4,0.7,0.6c0,0,0,0,0.1,0.1c0.4,0.3,0.8,0.6,1.2,0.9c0.4,0.3,0.8,0.6,1.3,0.9h31.5  c0.1-0.3,0.1-0.6,0.2-0.9h27c0.1-0.3,0.1-0.6,0.2-0.9h17.9c0.5-0.4,0.9-0.8,1.3-1.1H9.1C9.3,50.4,9.5,50.6,9.7,50.7z"></path>	<path class="st0" d="M17.9,56.3c0.4,0.2,0.7,0.4,1.1,0.6c0,0,0.1,0,0.1,0.1c0.6,0.3,1.3,0.6,1.9,0.9c0.7,0.3,1.5,0.6,2.2,0.9H42  c0.2-0.3,0.4-0.6,0.5-0.9h27c0.2-0.3,0.3-0.6,0.5-0.9h10.9c0.7-0.4,1.5-0.7,2.2-1.1H17C17.3,56,17.6,56.2,17.9,56.3z"></path>	<path class="st0" d="M33.4,62c0.9,0.2,1.8,0.4,2.7,0.6c0.1,0,0.2,0,0.3,0.1c0.8,0.1,1.5,0.3,2.3,0.4c1.6,0.2,3.2,0.4,4.8,0.6h12.9  c2.4-0.2,4.8-0.5,7.1-0.9c1-0.2,2-0.4,3-0.6c0.7-0.2,1.5-0.3,2.2-0.5H31.2C31.9,61.6,32.6,61.8,33.4,62z"></path>	<path class="st0" d="M62.2,1C62.2,0.9,62.3,0.9,62.2,1l-0.7-0.1c-1.8-0.3-3.6-0.5-5.5-0.6C54.1,0.1,52,0,50,0c-2,0-4.1,0.1-6.1,0.2  c-1.9,0.1-3.7,0.3-5.5,0.6l-3.8,0.7c-0.4,0.1-0.8,0.2-1.1,0.2h27.9C61.7,1.5,61.9,1.2,62.2,1z"></path>	<path class="st0" d="M30.9,7.4h27c0.1-0.3,0.3-0.6,0.4-0.9h21.9c-0.7-0.4-1.5-0.7-2.2-1c-0.2-0.1-0.4-0.1-0.6-0.1H23  c-0.4,0-0.8,0.1-1.2,0.3c-0.2,0.1-0.4,0.2-0.6,0.3c-0.4,0.2-0.8,0.4-1.2,0.6c0,0-0.1,0-0.1,0.1c-0.6,0.3-1.2,0.6-1.8,0.9  c-0.6,0.3-1.1,0.6-1.7,0.9h14.2C30.6,8,30.7,7.7,30.9,7.4z"></path>	<path class="st0" d="M29.4,13h27c0-0.3,0.1-0.6,0.1-0.9h32.7c-0.5-0.4-1-0.8-1.5-1.1H13.1c-0.6,0-1.1,0.2-1.6,0.5c0,0,0,0,0,0  c-0.2,0.2-0.5,0.4-0.7,0.6c0,0-0.1,0-0.1,0.1c-0.4,0.3-0.7,0.6-1.1,0.9c-0.4,0.3-0.7,0.6-1,0.9h20.6C29.3,13.6,29.3,13.3,29.4,13z"></path>	<path class="st0" d="M29.5,18.6h27c-0.1-0.3-0.1-0.6-0.1-0.9h38.5c-0.3-0.4-0.6-0.8-0.9-1.1H6.1c-0.2,0.2-0.3,0.4-0.4,0.5  c-0.2,0.2-0.3,0.4-0.5,0.6c0,0,0,0,0,0.1c-0.2,0.3-0.5,0.6-0.7,0.9c-0.2,0.3-0.4,0.6-0.7,0.9h25.8C29.6,19.2,29.5,18.9,29.5,18.6z"></path>	<path class="st0" d="M31.2,24.2h27c-0.2-0.3-0.3-0.6-0.4-0.9h40.4c-0.2-0.4-0.3-0.8-0.5-1.1H2.3c-0.1,0.2-0.2,0.4-0.3,0.5  C2,22.9,1.9,23,1.8,23.2c0,0,0,0,0,0.1c-0.1,0.3-0.3,0.6-0.4,0.9c-0.1,0.3-0.2,0.6-0.3,0.9h30.6C31.5,24.8,31.4,24.5,31.2,24.2z"></path>	<path class="st0" d="M35.2,29.8h27l-0.4-0.4c-0.1-0.2-0.3-0.3-0.4-0.5h38.5c0-0.4-0.1-0.8-0.2-1.1H0.4c0,0.2-0.1,0.4-0.1,0.5  c0,0.2-0.1,0.4-0.1,0.6c0,0,0,0,0,0.1c-0.1,0.3-0.1,0.6-0.1,0.9C0,30.1,0,30.4,0,30.8h36L35.2,29.8z"></path></g></svg>